# xmcd
#
# Track frame offsets:
#	150
#	18092
#	36007
#	50830
#	66567
#	84157
#	96270
#	109812
#	127562
#	142197
#	160425
#	177132
#	198265
#	217502
#
# Disc length: 3221 seconds
#
# Revision: 1
# Processed by: cddbd v1.5.1PL0 Copyright (c) Steve Scherf et al.
# Submitted via: CDex 1.50Beta5
#
DISCID=b70c930e
DTITLE=COOLS - COOLS'90
DYEAR=1900
DGENRE=
TTITLE0=GREAT&REALLY&ROCKIN'
TTITLE1=WILD ROAD
TTITLE2=BE A GOOD BOY
TTITLE3=CINDERELLA LEBERTY
TTITLE4=GOOD-BY ANGEL
TTITLE5=ROCK THE WORLD
TTITLE6=VENUS
TTITLE7=HARD TO EXPLAIN
TTITLE8=ひびわれたグラス
TTITLE9=恋のおわり
TTITLE10=CLIMAX
TTITLE11=THAT IS MY DESIRE
TTITLE12=SKINNY LEGS MAMA
TTITLE13=T-BIRD CRUISIN'
EXTD=
EXTT0=
EXTT1=
EXTT2=
EXTT3=
EXTT4=
EXTT5=
EXTT6=
EXTT7=
EXTT8=
EXTT9=
EXTT10=
EXTT11=
EXTT12=
EXTT13=
PLAYORDER=
